<?xml version="1.0" encoding="UTF-8"?>
<svg id="uuid-b213024b-fdbc-4d3c-bcbd-78b37062ede8" data-name="Layer 2" xmlns="http://www.w3.org/2000/svg" width="119.8" height="140.9" viewBox="0 0 119.8 140.9">
  <g id="uuid-35171f91-f7de-4701-9f4f-2f2151f72e40" data-name="uuid-9f421c27-7931-4e17-a310-b7b11617a59e">
    <g id="uuid-32766c5d-bd25-427d-93af-29b21325e281" data-name="uuid-4e8dbe32-c4e2-403a-90fa-d03124428844">
      <g id="uuid-676e533a-f80b-4fb5-a915-89d358286d86" data-name="uuid-06bb1067-8174-4a66-af25-cafb8c6548b2">
        <g>
          <path d="m91.2,58.2c5.7,3.3,10.2,11.2,10.2,17.7l-.2,51.7c0,6.5-4.6,9.1-10.3,5.9l-12.7-7.3-24.8,14.7.1-29-43.3-25c-5.7-3.3-10.2-11.2-10.2-17.7L.2,17.5c0-6.5,4.6-9.1,10.3-5.8l80.7,46.5h0Zm-46.6,34.3l18.6-37.1-3.1-3.4-18.6,37.1,3.1,3.4m39.4-.4c.3-.2.5-.6.5-1.1s-.2-1.1-.5-1.7l-11.9-20.6-2.4,1.4,10.7,18.5-10.8,6.1,2.4,4.2,12-6.8m-53.2-17.6l2.4-1.4-10.4-18.1,10.2-5.8-2.4-4.2-11.4,6.5c-.7.4-.7,1.6,0,2.8l11.6,20.2" style="fill: #00789d;"/>
          <g>
            <path d="m33,49.2l-2.4-4.2-11.4,6.5c-.7.4-.7,1.6,0,2.8l11.7,20.2,2.4-1.4-10.4-18.1,10.1-5.8h0Z" style="fill: #fff;"/>
            <polygon points="41.5 89.1 44.6 92.5 63.2 55.4 60.1 52 41.5 89.1" style="fill: #fff;"/>
            <path d="m84.1,89.4l-11.9-20.6-2.4,1.4,10.7,18.5-10.8,6.1,2.4,4.2,12-6.8c.3-.2.5-.6.5-1.1-.1-.6-.2-1.2-.5-1.7h0Z" style="fill: #fff;"/>
          </g>
          <path d="m119.8,64.8v-1c0-.2,0-.3-.1-.5,0-.2,0-.3-.1-.5h0c0-.2,0-.3-.1-.5,0-.2-.1-.4-.1-.5s-.1-.4-.1-.5c0-.2-.1-.4-.1-.5s-.1-.3-.1-.4h0v-.1c0-.2-.1-.4-.2-.5-.1-.2-.1-.4-.2-.5s-.1-.3-.2-.5c-.1-.2-.1-.3-.2-.5,0-.1-.1-.3-.2-.4h0v-.1c-.1-.2-.2-.3-.2-.5-.1-.2-.2-.4-.3-.5-.1-.2-.2-.4-.3-.6-.1-.2-.2-.4-.4-.7,0,0,0-.1-.1-.1,0,0,0-.1-.1-.1-.2-.4-.5-.8-.8-1.2-.2-.3-.4-.6-.7-.9-.2-.2-.3-.4-.5-.6-.1-.2-.3-.3-.4-.5s-.3-.3-.4-.5c-.1-.1-.3-.3-.4-.4l-.1-.1h0c-.1-.1-.2-.2-.3-.3s-.3-.3-.4-.4c-.2-.1-.3-.3-.5-.4s-.3-.3-.5-.4c-.1-.1-.2-.1-.2-.2h0c-.07-.07-.13-.1-.2-.1-.2-.1-.3-.2-.5-.3s-.3-.2-.5-.3c-.1-.1-.3-.2-.4-.3-.1-.1-.3-.2-.4-.3,0,0-.1,0-.1-.1L28.7,1.4c-.1-.1-.2-.1-.3-.2s-.3-.2-.4-.2c-.1-.1-.3-.1-.4-.2-.1-.1-.3-.1-.4-.2-.1-.1-.3-.1-.4-.2h-.1c-.1,0-.2-.1-.3-.1s-.3-.1-.4-.1-.3-.1-.4-.1c-.2,0-.3-.1-.5-.1h-1.4c-.2,0-.4.1-.6.1h0c-.2.1-.5.1-.7.2-.3.1-.6.2-.8.4L3.3,11c.5-.3,1-.5,1.5-.6h0c.5-.1,1.1-.1,1.7-.1h0c.6.1,1.2.2,1.9.4h0c.7.2,1.4.5,2.1.9l80.7,46.6c.7.4,1.4.9,2,1.4h0c.7.5,1.3,1.1,1.9,1.8h0c1.2,1.3,2.3,2.8,3.2,4.3,0,0,0,.1.1.1.4.8.8,1.6,1.2,2.4h0c.4.8.7,1.7.9,2.5h0c.2.9.5,1.7.6,2.5h0c.1.8.2,1.7.2,2.5l-.2,51.7c0,.8-.1,1.5-.2,2.2v.1c-.1.7-.3,1.3-.6,1.8h0c-.2.4-.5.8-.8,1.2-.1.1-.2.2-.3.4-.3.4-.7.7-1.1.9h0l18.3-10.6c.4-.2.8-.6,1.1-.9.1-.1.2-.2.3-.4.1-.1.3-.3.4-.5.1-.2.3-.4.4-.7h0c.1-.2.2-.3.2-.5.1-.2.1-.4.2-.5,0-.2.1-.3.1-.5v-.5c0-.2,0-.3.1-.5v-1.5h0l.2-51.7c.4-.1.4-.3.4-.4h0Z" style="fill: #e6b400;"/>
        </g>
      </g>
    </g>
  </g>
</svg>