<?xml version="1.0" encoding="UTF-8"?>
<svg id="uuid-ccb2719e-bde2-418f-b1ad-23a0ff6da594" data-name="Layer 2" xmlns="http://www.w3.org/2000/svg" width="174" height="206.05" viewBox="0 0 174 206.05">
  <g id="uuid-29571ee8-5c30-48da-8390-7177323aa987" data-name="uuid-9f421c27-7931-4e17-a310-b7b11617a59e">
    <g id="uuid-04ae0e85-eff6-4fea-bb92-4290b7d13cce" data-name="uuid-4e8dbe32-c4e2-403a-90fa-d03124428844">
      <g id="uuid-848709e3-4e30-4b31-9698-138f57ec169c" data-name="uuid-06bb1067-8174-4a66-af25-cafb8c6548b2">
        <g>
          <g>
            <polygon points="44.8 69.4 44.6 108.5 37.8 104.5 37.8 87.4 24.4 79.6 24.3 96.7 17.5 92.8 17.6 53.7 24.4 57.6 24.4 73 37.8 80.8 37.9 65.4 44.8 69.4" style="fill: #fff;"/>
            <polygon points="76.5 87.7 76.4 94.3 66.4 88.5 66.3 120.9 59.4 117 59.5 84.5 49.4 78.7 49.4 72.1 76.5 87.7" style="fill: #fff;"/>
            <polygon points="113.6 109.1 113.5 148.2 107.1 144.6 107.2 113.8 100.4 140.6 93.8 136.8 87.1 102.2 87.1 133 80.7 129.3 80.8 90.2 91.1 96.1 97.2 126.4 103.3 103.2 113.6 109.1" style="fill: #fff;"/>
            <polygon points="127.5 117.5 127.4 149.7 144.5 159.5 144.5 166.1 120.6 152.3 120.7 113.5 127.5 117.5" style="fill: #fff;"/>
          </g>
          <path d="m144.2,88.1c6.2,3.6,11.2,12.3,11.2,19.4l-.3,90.6c0,7.1-5.1,10-11.3,6.4L11.2,128c-6.2-3.6-11.2-12.3-11.2-19.4L.3,18c0-7.1,5.1-10,11.3-6.4l132.6,76.5h0Zm-30.7,60.1l.1-39.1-10.3-5.9-6.2,23.1-6.1-30.2-10.3-5.9-.1,39.1,6.4,3.7.1-30.8,6.6,34.7,6.6,3.8,6.8-26.9-.1,30.8,6.5,3.6m-68.8-39.7l.1-39.1-6.9-4v15.4l-13.5-7.8v-15.4l-6.9-4-.1,39.1,6.9,4v-17.1l13.5,7.8v17.1l6.9,4m31.7-14.2v-6.6l-27-15.6v6.6l10.1,5.8-.1,32.5,6.9,4,.1-32.5,10,5.8m68.1,71.8v-6.6l-17.1-9.9.1-32.2-6.9-4-.1,38.8,24,13.9" style="fill: #e48102;"/>
          <path d="m173.8,96.3v-1c0-.2,0-.4-.1-.5,0-.2,0-.4-.1-.6h0c0-.2-.1-.3-.1-.5s-.1-.4-.1-.6-.1-.4-.1-.6-.1-.4-.2-.6c0-.2-.1-.3-.2-.5h0v-.1c-.1-.2-.1-.4-.2-.6-.1-.2-.1-.4-.2-.6-.1-.2-.1-.4-.2-.5s-.1-.4-.2-.5c-.1-.2-.1-.3-.2-.4h0v-.1c-.1-.2-.2-.4-.2-.5-.1-.2-.2-.4-.3-.6-.1-.2-.2-.5-.3-.7s-.3-.5-.4-.7c0,0,0-.1-.1-.1,0,0,0-.1-.1-.1-.3-.5-.5-.9-.8-1.3-.2-.3-.5-.7-.7-1h0c-.2-.2-.3-.4-.5-.7-.1-.2-.3-.4-.4-.5-.1-.2-.3-.3-.4-.5-.1-.2-.3-.3-.4-.5l-.1-.1h0c-.1-.1-.2-.2-.3-.4l-.5-.5-.5-.5c-.2-.2-.3-.3-.5-.4-.1-.1-.2-.1-.2-.2h0l-.2-.2c-.2-.1-.3-.2-.5-.4s-.3-.2-.5-.3-.3-.2-.5-.3-.3-.2-.5-.3c0,0-.1,0-.1-.1L30.3,1.2c-.1-.1-.2-.1-.3-.2-.2-.1-.3-.2-.5-.2-.1,0-.2-.1-.3-.1h-.2c-.2-.1-.3-.1-.5-.2s-.3-.1-.5-.2h-.2c-.1,0-.2-.1-.3-.1-.2,0-.3-.1-.5-.1h-.4c-.2,0-.3-.1-.5-.1h-1.6c-.2,0-.4,0-.7.1h-.2c-.2,0-.4.1-.6.2h0c-.3.1-.6.2-.9.4h0L3.8,11.4c.3-.2.6-.3.9-.4.2-.1.4-.1.7-.2h.2c.3-.1.5-.1.8-.1h1.2c.3,0,.6.1.9.1h.1c.3.1.7.2,1,.3h.1c.3.1.7.3,1.1.4h.1c.4.2.7.4,1.1.6l132.6,76.5c.8.4,1.5,1,2.2,1.5h.1c.7.6,1.4,1.2,2.1,1.9h0c.7.7,1.3,1.5,1.9,2.3h0c.6.8,1.1,1.6,1.6,2.5,0,0,0,.1.1.1.5.8.9,1.7,1.3,2.6h0c.4.9.7,1.8,1,2.8h0c.3.9.5,1.9.6,2.8h0c.2.9.2,1.8.2,2.7l-.3,90.6c0,.9-.1,1.7-.2,2.4v.1c-.2.7-.4,1.4-.6,2h0c-.2.5-.5.9-.8,1.3-.1.1-.2.3-.3.4-.4.4-.8.8-1.2,1l18.3-10.7c.5-.3.9-.6,1.2-1,.1-.1.2-.3.3-.4.1-.2.3-.3.4-.5.2-.2.3-.5.4-.8h0c.1-.2.2-.4.2-.6.1-.2.1-.4.2-.6,0-.2.1-.4.2-.6v-.5c0-.2.1-.3.1-.5s0-.3.1-.5v-1h0l.3-90.6c-.2-.6-.2-.8-.2-1h0Z" style="fill: #da5e04;"/>
        </g>
      </g>
    </g>
  </g>
</svg>