<?xml version="1.0" encoding="UTF-8"?>
<svg id="uuid-fa971b39-c238-4154-855e-4de2bab62c15" data-name="Layer 2" xmlns="http://www.w3.org/2000/svg" width="262.3" height="183.38" viewBox="0 0 262.3 183.38">
  <g id="uuid-1e40d451-2529-4d9e-a46c-70118d4c7bf1" data-name="uuid-9f421c27-7931-4e17-a310-b7b11617a59e">
    <g id="uuid-1e2e0573-1e52-4c1f-9b6d-cd163bd64b7d" data-name="uuid-4e8dbe32-c4e2-403a-90fa-d03124428844">
      <g id="uuid-3ea42ed7-8dd4-4628-85c0-9d6e36ce40c2" data-name="uuid-06bb1067-8174-4a66-af25-cafb8c6548b2">
        <g>
          <g>
            <path d="m58.7,36.88l11.5-6.7-3.7-2.1-11.7,6.8c-1.5.8-2.6,1.3-3.4,1.4s-1.6-.1-2.4-.6-1.1-1-.8-1.6c.2-.4.8-.9,1.7-1.6l-3.9-1.8c-1.9,1.1-2.9,2.3-3,3.4,0,1.2.9,2.2,2.7,3.3,1.5.9,3.1,1.4,4.7,1.6s3.1.1,4.5-.4c1-.2,2.3-.8,3.8-1.7h0Z" style="fill: #fff;"/>
            <path d="m79.4,35.48l-25.3,6.4,3.9,2.3,5.6-1.5,7.3,4.2-2.5,3.3,4,2.3,10.8-14.8-3.8-2.2h0Zm-6.5,9l-5-2.9,9.2-2.5-4.2,5.4h0Z" style="fill: #fff;"/>
            <polygon points="102 48.48 84 53.78 92.9 43.28 88.9 40.98 77.2 55.28 81.2 57.58 105.9 50.78 102 48.48" style="fill: #fff;"/>
            <path d="m111.1,53.78l-25.3,6.4,3.9,2.3,5.6-1.5,7.3,4.2-2.5,3.3,4,2.3,10.8-14.8-3.8-2.2h0Zm-6.5,9l-5-2.9,9.2-2.5-4.2,5.4h0Z" style="fill: #fff;"/>
            <path d="m133.5,76.18c-.4-.8-1.3-1.8-2.7-3.1-1.4-1.3-2.1-2.2-2.2-2.7-.1-.4.1-.7.6-1s1-.4,1.7-.3c1,.1,2.1.4,3.2,1.1,1,.6,1.6,1.2,1.7,1.7s-.2,1.1-1,1.8l3.8,2c1.6-1,2.3-2.1,2.2-3.4-.2-1.3-1.4-2.5-3.7-3.9-1.4-.8-2.8-1.4-4.2-1.7-1.4-.3-2.8-.4-4.1-.3-1.3.2-2.5.5-3.4,1.1-1.4.8-2.1,1.9-2,3.1.1.9.9,2,2.4,3.4,1.2,1.1,1.9,1.8,2.2,2.2.4.5.6.9.5,1.2-.1.3-.3.6-.7.8-.7.4-1.6.6-2.7.5s-2.2-.4-3.4-1.1c-1.1-.7-1.7-1.3-1.8-2-.1-.7.4-1.5,1.3-2.3l-3.9-1.9c-1.8,1.3-2.6,2.7-2.4,4s1.4,2.7,3.8,4c1.6.9,3.1,1.6,4.6,1.9s3,.4,4.5.2c1.5-.2,2.8-.6,3.8-1.2,1.2-.7,1.9-1.4,2.2-2.1s.1-1.3-.3-2h0Z" style="fill: #fff;"/>
            <path d="m147.7,88.28c-1.7.6-3.1.9-4.5.8-1.3-.1-2.5-.4-3.5-.9-1.3-.8-1.9-1.7-1.8-2.7s1.4-2.2,3.7-3.6c2.2-1.3,4.2-1.9,6-2s3.4.3,4.8,1.1c1,.6,1.6,1.2,1.7,1.9.1.7-.1,1.4-.9,2.1l4.5,1.6c1-1.1,1.5-2.1,1.5-3-.1-1.6-1.3-3-3.5-4.3-2.6-1.5-5.5-2.2-8.7-2.1s-6.4,1-9.4,2.7c-2.9,1.7-4.3,3.4-4.4,5.3s1.1,3.5,3.5,4.9c2,1.1,4.1,1.8,6.3,2,2.2.2,4.6-.2,7.2-1l-2.5-2.8h0Z" style="fill: #fff;"/>
            <path d="m166,97.28c1.8.8,3.6,1.2,5.3,1.1,1.7-.1,3.2-.5,4.6-1.3,1.1-.6,1.8-1.3,2.1-2.1.3-.8.2-1.5-.4-2.2s-1.8-1.6-3.8-2.8l-7.8-4.5-18.2,10.6,3.7,2.1,7.6-4.4.8.4c.8.5,1.4.9,1.6,1.2.2.3.4.7.3,1.1,0,.4-.3,1.3-.7,2.7l-1.3,3.8,4.4,2.6,1.3-3.3c.5-1.3.8-2.3.9-2.9.1-.7-.1-1.4-.4-2.1h0Zm-1.3-3.6l-2.7-1.6,4.6-2.7,2.9,1.7c1.5.9,2.4,1.4,2.7,1.6.5.4.7.8.7,1.2-.1.4-.4.8-1,1.2-.5.3-1.1.5-1.7.6s-1.2,0-1.8-.2c-.7-.2-1.9-.8-3.7-1.8h0Z" style="fill: #fff;"/>
            <polygon points="184.3 96.08 166.2 106.58 169.8 108.78 188 98.18 184.3 96.08" style="fill: #fff;"/>
            <path d="m196.5,112.88c1.2-.2,2.3-.6,3.4-1.3,1.4-.8,2.3-1.7,2.5-2.7.2-.9-.1-1.8-.8-2.6-.5-.5-1.9-1.4-4.1-2.7l-5.9-3.4-18.2,10.6,3.7,2.1,6.8-4,2.4,1.4c1.7,1,3.1,1.7,4.1,2.1.8.3,1.7.5,2.8.6,1.1.1,2.2.1,3.3-.1h0Zm-4.3-3.1c-.7-.2-1.8-.7-3.2-1.5l-2-1.2,5.2-3,1.8,1c1.3.8,2.2,1.3,2.5,1.6.5.4.7.8.7,1.3-.1.5-.4.9-1.1,1.3-.5.3-1.2.5-1.8.6-.7.2-1.4.1-2.1-.1h0Z" style="fill: #fff;"/>
            <polygon points="207.3 109.28 204.2 111.08 209.6 114.28 194.5 122.98 198.2 125.18 213.3 116.38 218.7 119.48 221.8 117.68 207.3 109.28" style="fill: #fff;"/>
          </g>
          <g>
            <polygon points="72.9 44.48 77.1 39.08 67.9 41.58 72.9 44.48" style="fill: #e6b400;"/>
            <polygon points="104.6 62.78 108.8 57.38 99.6 59.88 104.6 62.78" style="fill: #e6b400;"/>
            <path d="m170.1,95.58c.6-.1,1.2-.3,1.7-.6.6-.4.9-.7,1-1.2s-.2-.8-.7-1.2c-.3-.2-1.2-.7-2.7-1.6l-2.9-1.7-4.6,2.7,2.7,1.6c1.8,1,2.9,1.6,3.5,1.8.8.2,1.4.3,2,.2h0Z" style="fill: #e6b400;"/>
            <path d="m197.2,108.08c0-.5-.2-.9-.7-1.3-.3-.3-1.2-.8-2.5-1.6l-1.8-1-5.2,3,2,1.2c1.5.8,2.5,1.3,3.2,1.5s1.4.2,2.1.2c.7-.1,1.3-.3,1.8-.6.7-.4,1-.9,1.1-1.4h0Z" style="fill: #e6b400;"/>
            <path d="m256.8,101.88L85.7,3.07c-7-4.1-18.5-4.1-25.5,0L5.2,34.98c-7,4.1-6.9,10.7.1,14.8l171.1,98.8c7,4.1,18.5,4.1,25.5,0l55-31.9c7-4.1,6.9-10.7-.1-14.8h0ZM50.4,39.07c-1.6-.2-3.2-.7-4.7-1.6-1.8-1-2.7-2.1-2.7-3.3,0-1.1,1-2.3,3-3.4l3.9,1.8c-1,.6-1.6,1.2-1.8,1.6-.2.6,0,1.2.8,1.6.8.5,1.6.7,2.4.6s2-.6,3.4-1.4l11.7-6.8,3.7,2.1-11.5,6.7c-1.5.9-2.8,1.5-3.9,1.8-1.3.3-2.8.4-4.3.3h0Zm18.1,11.1l2.5-3.3-7.3-4.2-5.6,1.5-3.9-2.3,25.3-6.4,3.9,2.2-10.8,14.8-4.1-2.3h0Zm8.7,5.1l11.7-14.3,4,2.3-8.8,10.5,17.9-5.2,3.9,2.3-24.7,6.8-4-2.4h0Zm23,13.3l2.5-3.3-7.3-4.2-5.6,1.5-3.9-2.3,25.3-6.4,3.9,2.3-10.8,14.8-4.1-2.4h0Zm31.3,11.9c-1,.6-2.3,1-3.8,1.2s-3,.1-4.5-.2-3.1-1-4.6-1.9c-2.3-1.3-3.6-2.7-3.8-4-.2-1.3.7-2.7,2.4-4l3.9,1.9c-.9.8-1.4,1.6-1.3,2.3.1.7.7,1.4,1.8,2,1.2.7,2.3,1.1,3.4,1.1,1.1.1,2-.1,2.7-.5.4-.2.7-.5.7-.8.1-.3-.1-.7-.5-1.2-.3-.3-1-1.1-2.2-2.2-1.5-1.4-2.3-2.6-2.4-3.4-.1-1.2.6-2.3,2-3.1.9-.5,2.1-.9,3.4-1.1s2.7-.1,4.1.3,2.8.9,4.2,1.7c2.3,1.3,3.5,2.6,3.7,3.9.2,1.2-.6,2.4-2.2,3.4l-3.8-2c.8-.6,1.1-1.2,1-1.8-.1-.6-.7-1.1-1.7-1.7-1.1-.6-2.1-1-3.2-1.1-.7-.1-1.2,0-1.7.3-.4.2-.6.6-.6,1,.1.5.8,1.4,2.2,2.7,1.4,1.3,2.3,2.3,2.7,3.1.4.8.5,1.5.2,2.2-.2.5-.9,1.2-2.1,1.9h0Zm11.5,11.5c-2.2-.2-4.3-.8-6.3-2-2.4-1.4-3.6-3-3.5-4.9s1.5-3.6,4.4-5.3c3-1.8,6.2-2.7,9.4-2.7,3.3-.1,6.1.6,8.7,2.1,2.2,1.3,3.4,2.7,3.5,4.3.1.9-.4,1.9-1.5,3l-4.5-1.6c.7-.7,1-1.4.9-2.1s-.7-1.3-1.7-1.9c-1.4-.8-2.9-1.1-4.8-1.1-1.8.1-3.8.7-6,2-2.3,1.3-3.5,2.5-3.7,3.6-.1,1,.4,2,1.8,2.7,1,.6,2.1.9,3.5.9,1.3,0,2.8-.2,4.5-.8l2.4,2.7c-2.5.9-4.8,1.3-7.1,1.1h0Zm21.3,13.5l-4.4-2.6,1.3-3.8c.5-1.4.7-2.2.7-2.7,0-.4-.1-.8-.3-1.1-.2-.3-.8-.7-1.6-1.2l-.8-.4-7.6,4.4-3.7-2.1,18.2-10.6,7.8,4.5c2,1.1,3.2,2.1,3.8,2.8.6.7.7,1.4.4,2.2-.3.8-1,1.5-2.1,2.1-1.4.8-2.9,1.2-4.6,1.3-1.7.1-3.5-.3-5.3-1.1.3.7.5,1.4.4,2,0,.6-.3,1.6-.9,2.9l-1.3,3.4h0Zm1.9,1.1l18.2-10.6,3.7,2.1-18.2,10.6-3.7-2.1Zm24.2,5.8c-1-.4-2.4-1.1-4.1-2.1l-2.4-1.4-6.8,4-3.7-2.1,18.2-10.6,5.9,3.4c2.2,1.3,3.6,2.2,4.1,2.7.8.8,1.1,1.6.8,2.6-.2.9-1,1.8-2.5,2.7-1.1.6-2.2,1.1-3.4,1.3-1.2.2-2.3.3-3.3.1-1.1-.1-2-.3-2.8-.6h0Zm28.3,7.1l-5.4-3.1-15.1,8.8-3.7-2.1,15.1-8.8-5.4-3.1,3.1-1.8,14.5,8.4-3.1,1.7h0Z" style="fill: #e6b400;"/>
          </g>
          <path d="m262.1,109.88c0,.2,0,.4-.1.6,0,.2-.1.3-.1.5-.1.2-.1.4-.2.6s-.1.3-.2.4c-.1.2-.2.4-.3.6-.1.1-.2.3-.2.4-.1.2-.3.4-.4.6-.1.1-.2.2-.3.4-.2.3-.5.6-.8.8l-.3.3c-.2.2-.4.3-.5.4-.2.1-.3.3-.5.4-.2.2-.4.3-.6.4-.2.2-.4.3-.7.4l-55,31.9c-.8.4-1.6.8-2.5,1.2-.2.1-.5.2-.7.3-.5.2-1.1.3-1.7.5s-1.2.3-1.8.4c-.7.2-1.5.3-2.2.4-.2,0-.3.1-.5.1-1,.1-2,.2-3,.2h-.5c-1,0-2-.1-3-.2-.2,0-.3,0-.4-.1-1-.1-1.9-.3-2.9-.5-.2,0-.3-.1-.5-.1-.8-.2-1.7-.5-2.5-.8-.2-.1-.3-.1-.5-.2-1-.4-1.9-.8-2.7-1.3L5.4,49.68c-3.1-1.8-4.8-4.1-5.2-6.4-.1-.3-.1-.7-.1-1L0,74.08c0,2.7,1.8,5.4,5.3,7.4l171.1,98.8c.8.5,1.7.9,2.6,1.2.07,0,.13.03.2.1.2.1.3.1.5.2.5.2,1,.4,1.6.5.3.1.6.2.9.2.2,0,.3.1.5.1s.3.1.4.1c.6.1,1.2.2,1.8.3.2,0,.4.1.7.1.2,0,.3,0,.4.1.2,0,.4.1.6.1.6.1,1.2.1,1.8.1h1.9c.7,0,1.3-.1,2-.1h.2c.2,0,.3-.1.5-.1.5-.1,1.1-.1,1.6-.2.2,0,.4-.1.6-.2.6-.1,1.2-.3,1.8-.4.3-.1.7-.1,1-.2.2-.1.5-.2.7-.3.2-.1.5-.2.7-.3.9-.3,1.7-.7,2.5-1.2l55-31.9c.1,0,.2-.1.2-.1.2-.1.3-.2.5-.3.2-.1.4-.3.6-.4s.3-.3.5-.4c.2-.2.4-.3.5-.4l.1-.1.2-.2.8-.8.2-.2c.07-.07.1-.13.1-.2.2-.2.3-.4.4-.6.1-.1.1-.2.2-.3,0-.07.03-.1.1-.1.1-.2.2-.4.3-.6.1-.1.1-.2.2-.3v-.1c.1-.2.1-.4.2-.5,0-.1.1-.2.1-.4v-.1c0-.2.1-.4.1-.6v-.6l.1-31.8c-.1.2-.2.3-.2.5h0Z" style="fill: #e48102;"/>
        </g>
      </g>
    </g>
  </g>
</svg>