<?xml version="1.0" encoding="UTF-8"?>
<svg id="uuid-08e735f7-63ad-45aa-9e57-ebab9c8dccf6" data-name="Layer 2" xmlns="http://www.w3.org/2000/svg" width="182.31" height="258.95" viewBox="0 0 182.31 258.95">
  <g id="uuid-4a807de4-9482-4f72-9d68-b0b30d59d5c7" data-name="uuid-9f421c27-7931-4e17-a310-b7b11617a59e">
    <g id="uuid-42ff74aa-9db9-49e7-8e23-9d1c61f5c52a" data-name="uuid-4e8dbe32-c4e2-403a-90fa-d03124428844">
      <g id="uuid-519e5523-82b0-47d1-9294-190b4b06b394" data-name="uuid-06bb1067-8174-4a66-af25-cafb8c6548b2">
        <g id="uuid-e8ea87c1-94fa-4e0a-b403-5d4d66793e13" data-name="laptop-man">
          <path d="m179.21,221.07l.1.1-.3-.3c-.2-.3-.4-.5-.6-.8l-44.1-54-.2.5c-2.3-2.1-5.3-3.6-8.6-4.2l-15.9-2.6-8.8-7.6c-7-6.1-17.8-5.4-23.9,1.6-.2.2-.3.4-.5.7l-50.1-8.1c-9.2-1.5-17.9,4.8-19.4,14s4.8,17.9,14,19.4l73.7,11.9,59.6,51.9c7,6.1,17.8,5.4,23.9-1.6,5.3-6,5.5-14.7,1.1-20.9h0Z" style="fill: #003567;"/>
          <g>
            <path d="m80.21,200.77s0,.1,0,0c.2.3.5.5.8.7-.3-.2-.6-.4-.8-.7h0Z" style="fill: #f99ab6;"/>
            <path d="m81.01,201.57h0c-.3-.3-.5-.5-.8-.7-1.1-1-2.3-2-3.5-2.8l-46.2-41.5c-5.7-4.2-13.8-3.1-18,2.6s-3.1,13.8,2.6,18l51.9,35.8h0s2.1,2.7,5.1,6.6c1-.8,1.8-1.3,2.5-1.7,1.1-.6,2.1-.7,3-.8,5.7-7.4,3.4-15.5,3.4-15.5h0Z" style="fill: #fbdfb6;"/>
            <path d="m95.51,213.87c-.2-2.5-2.1-4.6-4.4-6.3-3.5-2.6-8.2-4.5-10.2-6h0s2.3,8.2-3.4,15.4c-.9,0-1.9.2-3,.8-.8.4-1.6.9-2.5,1.7,2.4,3.1,5.3,7,8.1,10.8,0-.1.1-.1.1-.1l2.7-1.6c.3-.2.8-.1,1,.2.2.3.1.8-.2,1l-2.7,1.6h-.1c.6.8,1.1,1.5,1.6,2.3.1-.1.1-.2.2-.3l2.7-1.6c.3-.2.8-.1,1,.2.2.3.1.8-.2,1l-2.7,1.6c-.1.1-.2,0-.2,0,.5.8,1,1.5,1.5,2.2.07-.07.1-.13.1-.2l2.7-1.6c.3-.2.8-.1,1,.2.2.3.1.8-.2,1l-2.7,1.6h-.2c.5.8,1,1.5,1.4,2.2.1-.1.1-.3.3-.4l2.7-1.6c.3-.2.8-.1,1,.2.2.3.1.8-.2,1l-2.7,1.6c-.1.1-.3.1-.4.1.5.8.9,1.5,1.2,2.1,3.6,7.1,4.8,14.5,6.9,15.4-1-1,1.8-4.7,5.2-2.1h0c3.1-2.6,6.1-7.7,4.6-15.4-2.6-12.8-9.4-19.9-10-27h0Z" style="fill: #e48102;"/>
            <path d="m100.71,222.17c-2.1-3.4-2.1-8.8-3.9-11.2-1.8-2.4-5.4-3.4-5.6-3.4,2.3,1.7,4.2,3.8,4.4,6.3.6,7,7.4,14.1,9.8,27.1,1.5,7.7-1.5,12.7-4.6,15.4h0c-3.4-2.6-6.3,1.1-5.2,2.1.1,0,.2.1.3.1,13.2,3.9,18.1-23.7,4.8-36.4h0Z" style="fill: #fff;"/>
            <path d="m82.51,234.37c.2.3.4.3.7.3-.2-.3-.4-.7-.7-1-.1.2-.2.4,0,.7h0Z" style="fill: #fff;"/>
            <path d="m86.11,232.97c.3-.2.4-.6.2-1s-.6-.4-1-.2l-2.7,1.6c-.1.1-.1.2-.2.3.2.3.5.7.7,1h.2l2.8-1.7h0Z" style="fill: #fff;"/>
            <path d="m80.01,231.17c.2.3.6.4.9.2-.3-.4-.5-.7-.8-1.1-.2.3-.3.6-.1.9h0Z" style="fill: #fff;"/>
            <path d="m83.61,229.77c.3-.2.4-.6.2-1s-.6-.4-1-.2l-2.7,1.6c-.1,0-.1.1-.1.1.3.4.5.7.8,1.1h.1l2.7-1.6Z" style="fill: #fff;"/>
            <path d="m84.61,237.57c.2.3.5.3.8.3-.2-.3-.5-.7-.7-1.1-.2.3-.2.6-.1.8h0Z" style="fill: #fff;"/>
            <path d="m88.21,236.17c.3-.2.4-.6.2-1s-.6-.4-1-.2l-2.7,1.6c-.1,0-.1.1-.1.2.2.4.5.7.7,1.1h.2l2.7-1.7h0Z" style="fill: #fff;"/>
            <path d="m86.91,240.67c.1.2.3.3.5.3-.2-.3-.4-.6-.6-.9,0,.1-.1.4.1.6h0Z" style="fill: #fff;"/>
            <path d="m90.51,239.27c.3-.2.4-.6.2-1s-.6-.4-1-.2l-2.7,1.6c-.1.1-.2.2-.3.4.2.3.4.6.6.9.2,0,.3,0,.4-.1l2.8-1.6h0Z" style="fill: #fff;"/>
          </g>
          <g>
            <path d="m103.51,210.77c-.3,0-.6,0-1-.1.4,0,.7.1,1,.1h0Z" style="fill: #f99ab6;"/>
            <path d="m93.81,225.77c.2.8.3,1.8.2,3.1,4.8-.1,8.3-.1,8.3-.1h0l-4.6-1.4c-1.5-.5-2.7-1-3.9-1.6h0Z" style="fill: #fbdfb6;"/>
            <path d="m169.21,222.07l-61.3-10.3c-1.4-.4-2.9-.7-4.4-1-.3-.1-.7-.1-1-.2h0s-7.8,3.3-9.9,12.3c.6.7,1,1.6,1.3,2.8,1.1.6,2.4,1.1,3.9,1.5l4.6,1.4,60.4,18.2c6.8,1.8,13.9-2.4,15.7-9.2s-2.5-13.8-9.3-15.5h0Z" style="fill: #fbdfb6;"/>
            <path d="m102.51,210.67h0c-2.4-.6-6.8-3.1-11-4.2-2.8-.8-5.6-.9-7.7.5-5.8,3.9-15.6,3-27.3,9.2-6.9,3.7-9,9.1-9.2,13.2h0c4.1,1,3,5.6,1.6,5.4,2.1,1.1,8.6-2.6,16.4-4.2.7-.1,1.5-.3,2.4-.4-.1-.1-.2-.2-.2-.4l-.4-3.1c-.1-.4.2-.7.6-.8.4-.1.7.2.8.6l.4,3.1c0,.2,0,.3-.1.4.8-.1,1.7-.2,2.6-.2,0-.1-.1-.1-.1-.2l-.4-3.1c-.1-.4.2-.7.6-.8.4-.1.7.2.8.6l.4,3.1c0,.07-.03.13-.1.2.8-.1,1.7-.1,2.7-.2,0-.1-.1-.1-.1-.2l-.4-3.1c-.1-.4.2-.7.6-.8s.7.2.8.6l.4,3.1c0,.1-.1.2-.1.3.9-.1,1.8-.1,2.8-.2v-.1l-.4-3.1c-.1-.4.2-.7.6-.8.4-.1.7.2.8.6l.4,3.1c0,.07-.03.13-.1.2,4.7-.2,9.6-.3,13.5-.4.1-1.3-.1-2.2-.2-3.1-.3-1.2-.7-2.1-1.3-2.8,2.1-8.8,9.9-12.1,9.9-12h0Z" style="fill: #e48102;"/>
            <path d="m85.31,204.17c-3,.1-7.2,3.4-11.2,3.9-18.2-2.4-36.8,18.6-25.5,26.5.1.1.2.1.2.2,1.4.2,2.5-4.4-1.6-5.4h0c.1-4.1,2.2-9.5,9.2-13.2,11.7-6.2,21.5-5.3,27.3-9.2,2.1-1.4,4.9-1.3,7.7-.5-.1-.1-3.1-2.3-6.1-2.3h0Z" style="fill: #fff;"/>
            <path d="m75.91,229.97c.3,0,.4-.2.5-.5-.4,0-.8.1-1.2.1.2.2.4.4.7.4h0Z" style="fill: #fff;"/>
            <path d="m76.11,226.07c-.1-.4-.4-.7-.8-.6s-.7.4-.6.8l.4,3.1c0,.1.1.1.1.2.4,0,.8-.1,1.2-.1,0-.1.1-.2.1-.3l-.4-3.1h0Z" style="fill: #fff;"/>
            <path d="m80.01,229.87c.3,0,.5-.3.6-.6-.4,0-.9,0-1.3.1,0,.3.3.5.7.5h0Z" style="fill: #fff;"/>
            <path d="m80.21,225.97c-.1-.4-.4-.7-.8-.6s-.7.4-.6.8l.4,3.1v.1c.4,0,.9,0,1.3-.1,0-.1.1-.1.1-.2l-.4-3.1h0Z" style="fill: #fff;"/>
            <path d="m72.01,230.27c.3,0,.5-.3.6-.6-.4,0-.8.1-1.3.1.1.3.4.5.7.5Z" style="fill: #fff;"/>
            <path d="m72.31,226.37c-.1-.4-.4-.7-.8-.6s-.7.4-.6.8l.4,3.1c0,.1.1.1.1.2.4,0,.8-.1,1.3-.1,0-.1.1-.1.1-.2l-.5-3.2h0Z" style="fill: #fff;"/>
            <path d="m68.31,230.37h0c.2,0,.4-.2.5-.3-.4,0-.7.1-1.1.1.2.2.3.3.6.2h0Z" style="fill: #fff;"/>
            <path d="m68.51,226.57c-.1-.4-.4-.7-.8-.6s-.7.4-.6.8l.4,3.1c0,.2.1.3.2.4.3,0,.7-.1,1.1-.1.1-.1.1-.3.1-.4l-.4-3.2h0Z" style="fill: #fff;"/>
          </g>
          <path d="m57.01,133.67s-29-1.1-34.6-1.5-11,4.1-12.3,7.2,5.6,9.4,7.3,10.3c1.8.9,4-4.9,10.4-4.6,6.5.4,33.9,2,33.9,2l-4.7-13.4h0Z" style="fill: #fbdfb6;"/>
          <path d="m89.41,77.77s-7.9,22.8-7.3,42.5c.1,14.5-1.6,18.3-5.6,34.5,0,9.7,43.3,34.2,61.1,9-6.1-16.1-11-43.1.5-71.9-4-5.3-15.5-11.9-20.8-15-9.9-5.7-13.9-5.1-13.9-5.1l-14,6h0Z" style="fill: #fff;"/>
          <path d="m104.81,84.87c.3-3.7-1.3-7.3-4.2-9.6-2-1.6-4.5-2.4-7-2.3-5.6.1-10.2,4.9-10.7,10.5-1.2,12.9-7.4,41.8-19,46.2-2,.8-4.3.6-6.7,0-4.4-1.2-9.2.2-11.9,3.9,0,.1-.1.1-.1.2-4.4,5.9-1.9,14.5,5.1,16.7,7.5,2.4,14.7,2.3,21.4-.2,27.2-10.4,32.3-56.3,33.1-65.4h0Z" style="fill: #fff;"/>
          <g>
            <polygon points="69.31 196.97 73.91 199.67 73.91 199.67 73.91 199.67 73.91 199.67 73.91 199.67 73.91 199.67 73.91 199.67 69.31 196.97 8.01 161.57 3.51 158.97 3.41 158.97 8.01 161.57 69.31 196.97" style="fill: #fff;"/>
            <path d="m96.01,154.17l-18.8-10.9s-.1,0-.2-.1l19,11c.1.1.1,0,0,0Z" style="fill: #b9b8f1;"/>
            <g>
              <path d="m94.21,176.97l-21.3-12.3.4,6.9,1.2,19.5v.2l15.9-9.2,3.4-1.9c1.6-1,1.8-2.4.4-3.2h0Z" style="fill: #da5e04;"/>
              <path d="m96.21,154.27l-19.1-11c-1.5-.8-3.8-.7-5.5.2l.4,6.1.8,12.4,4.9,2.8c1.5.9,4.1.8,5.8-.2l12.2-7c1.6-1,1.8-2.4.5-3.3h0Z" style="fill: #da5e04;"/>
            </g>
            <polygon points="75.01 199.07 75.01 198.97 73.91 199.67 75.01 199.07" style="fill: #fff;"/>
            <polygon points="73.71 191.57 73.41 191.67 73.41 191.87 74.51 191.17 74.51 191.07 73.71 191.57" style="fill: #fff;"/>
            <path d="m122.01,166.57l-52.7-30.4c-.8-1.2-1.8-2.2-2.8-2.8L5.21,97.97c-.9-.5-1.7-.6-2.4-.4h0c-.2.1-.3.1-.5.2l-.8.4h0c.7-.3,1.6-.2,2.6.3l61.3,35.4.1.1c1.5.9,2.9,2.8,3.8,4.8.6,1.3.9,2.7,1,4l.1,1.3.4,6.1.7,11.1.2,2.7.4,6.9,1.3,20.8.3-.2.8-.5-1.2-19.5-.4-6.9,21.3,12.3c1.4.8,1.2,2.2-.4,3.1l-3.4,1.9-15.9,9.2-1.1.6.1,1.5.4,6.3h0l1.1-.6,4.2-2.4,36-20.8,6.2-3.6c1.6-.9,2.4-2.1,2.4-3.2-.1-.8-.6-1.7-1.8-2.3h0Zm-26.4-9l-12.2,7c-1.7,1-4.3,1.1-5.8.2l-4.9-2.8-.8-12.4-.4-6.1c1.7-.9,4.1-1,5.5-.2.07,0,.13.03.2.1l18.8,10.9.1.1c1.4.8,1.2,2.2-.5,3.2h0Z" style="fill: #fff;"/>
            <g>
              <path d="m3.51,158.97l4.6,2.6,61.3,35.4,4.6,2.6h0l-.4-6.3-.1-1.5v-.2l-1.3-20.8-.4-6.9-.2-2.7-.7-11.1-.4-6.1-.1-1.3c-.1-1.3-.5-2.7-1-4-.9-2.1-2.3-3.9-3.8-4.8l-.1-.1L4.21,98.37c-1-.6-1.9-.7-2.6-.3-1.1.5-1.7,1.9-1.6,4l.5,7.4,2.7,43.1.3,6.4h0Zm23.4-16.3c.7-3,4.2-4,7.7-2.3.2.1.3.2.5.3.7.4,1.4.9,2,1.5,2,1.9,3.1,4.5,2.5,6.7-.7,3-4.2,4-7.7,2.3-1.7-.8-3.1-2.2-4-3.6-.4-.7-.7-1.4-.9-2.1-.3-1-.4-1.9-.1-2.8h0Z" style="fill: #da5e04;"/>
              <path d="m123.71,168.97c0,1.1-.8,2.3-2.4,3.2l-6.2,3.6-36,20.8-4.2,2.4v.1l-1.1.6h0l-4.6-2.6L7.91,161.67l-4.6-2.6v2.6l4.6,2.6,61.3,35.4,4.6,2.6,5.3-3,36-20.8,6.2-3.6c1.7-.9,2.5-2.2,2.4-3.3h0v-2.6h0Z" style="fill: #da5e04;"/>
            </g>
            <path d="m37.11,142.17c-.6-.6-1.3-1.1-2-1.5-.2-.1-.3-.2-.5-.3-3.5-1.7-7-.7-7.7,2.3-.2.9-.1,1.8.1,2.7.2.7.5,1.4.9,2.1.9,1.5,2.3,2.8,4,3.6,3.5,1.7,7,.7,7.7-2.3.5-2.1-.6-4.7-2.5-6.6h0Z" style="fill: #fff;"/>
          </g>
          <path d="m86.41,7.57c10.6-9.3,37.4-3,44.3,16.7s-6.8,36.4-13.8,38.8c-25.4-21.3-30.5-55.5-30.5-55.5Z" style="fill: #00284c;"/>
          <ellipse cx="103.88" cy="83.22" rx="16.4" ry="9.3" transform="translate(-9.31 13.18) rotate(-6.95)" style="fill: #fbdfb6;"/>
          <path d="m76.41,17.97s-4.2,7.4-3.4,20c.8,10.3-.9,21.5,1.6,26.9,2.6,5.5,14.3,15.7,32.3,6.9,14-7.6,15.7-23.6,15.7-23.6,0,0,4.4-2.5,5-4.7,1.4-2.3,1.1-9.8-6.8-5.6-8.1-25.1-36.4-31.3-44.4-19.9h0Z" style="fill: #fbdfb6;"/>
          <rect x="96.81" y="67.37" width="14" height="14" style="fill: #fbdfb6;"/>
          <path d="m114.31,25.67s-34.8,14.9-47.7-18.6c10.3-1.4,18.1-4.9,24.9-6.6s27.8,0,22.8,25.2h0Z" style="fill: #00284c;"/>
          <path d="m120.31,155.47s-28.2,6.9-33.6,8-9.5,7-9.9,10.3,7.9,7.5,9.9,7.9c1.9.4,2.5-5.8,8.8-7.2,6.3-1.4,33.2-7.4,33.2-7.4l-8.4-11.6h0Z" style="fill: #fbdfb6;"/>
          <path d="m89.41,163.37s-7.4.1-10.2-.8c-2.4-.7-1.5,3.9,5,4s5.2-3.2,5.2-3.2h0Z" style="fill: #fbdfb6;"/>
          <path d="m137.91,90.47c-1.5-3.4-4.5-5.9-8.2-6.5-2.5-.4-5.1,0-7.3,1.2-4.9,2.8-6.7,9.1-4.5,14.3,5,12,13,40.4,4.8,49.7-1.4,1.6-3.5,2.6-5.9,3.1-4.5,1-8,4.4-8.7,9v.2c-1.1,7.2,5.1,13.7,12.3,12.4,7.8-1.4,14.1-4.8,18.8-10.2,19.2-21.8,2.3-64.8-1.3-73.2h0Z" style="fill: #fff;"/>
        </g>
      </g>
    </g>
  </g>
</svg>