<?xml version="1.0" encoding="UTF-8"?>
<svg id="uuid-4b8130cc-0b99-4e92-bdea-16ea9d42c527" data-name="Layer 2" xmlns="http://www.w3.org/2000/svg" width="185.5" height="191.52" viewBox="0 0 185.5 191.52">
  <g id="uuid-6fdf3067-8bf9-4aa2-a8f3-c6321a167138" data-name="uuid-9f421c27-7931-4e17-a310-b7b11617a59e">
    <g id="uuid-2e8c9034-5752-4b8e-98a3-72f4572e50fe" data-name="uuid-4e8dbe32-c4e2-403a-90fa-d03124428844">
      <g id="uuid-df4b6667-56dc-402d-b52b-143714e494f7" data-name="uuid-06bb1067-8174-4a66-af25-cafb8c6548b2">
        <g>
          <path d="m131.8,80c14.5,8.4,26.2,28.7,26.2,45.3l-.1,47.6c-.1,16.7-11.8,23.4-26.3,15L26.2,127.1C11.7,118.7,0,98.4,0,81.8l.1-47.6c.1-16.6,11.8-23.4,26.3-15l105.4,60.8h0Zm-80.9,29.2c3-.9,5.2-3.7,6.5-8.4l-8.5-8c-.7,3.2-1.9,5.2-3.6,5.9-1.7.7-3.7.4-6-.9-3.2-1.8-5.7-4.6-7.7-8.5-2-3.8-2.9-8.9-2.9-15.1s1-9.6,3-11.1,4.6-1.3,7.8.5c2.3,1.4,4.3,3.2,5.9,5.7,1.6,2.4,2.7,5.1,3.2,8l8.7,2.6c-1-4.5-2.4-8.5-4.4-11.7-3.3-5.5-7.6-9.8-12.9-12.9-6.1-3.5-11-4-14.7-1.6s-5.6,7.8-5.6,16.1c0,7.8,1.8,15.1,5.5,21.7,3.7,6.7,8.4,11.6,14.2,15,4.6,2.6,8.4,3.5,11.5,2.7m44.9,22.5c1.4-1.7,2.1-4,2.1-6.8,0-3.1-.6-6.1-1.7-8.9-1.2-2.8-2.7-5.4-4.8-7.8-2-2.4-5.2-5.4-9.4-9-4.2-3.6-6.9-6.3-8-8-.9-1.3-1.3-2.6-1.3-3.8,0-1.3.5-2.1,1.4-2.3,1.4-.4,3.4.2,6,1.7,2.5,1.4,4.3,3,5.5,4.9,1.2,1.8,2,4.1,2.4,6.9l8.8,4.6c-.1-4.6-1.6-9.1-4.3-13.5s-6.8-8.1-12.3-11.2c-3.3-1.9-6.2-3-8.5-3.2-2.4-.2-4.2.4-5.4,1.9-1.3,1.5-1.9,3.5-1.9,6,0,3.9,1.3,8,4,12.3,1.9,3,5.2,6.6,9.9,10.6,3.7,3.2,6,5.2,7,6.2,1.5,1.5,2.5,2.8,3.2,4,.6,1.2.9,2.4.9,3.5,0,1.8-.7,3-2.2,3.6-1.4.5-3.6,0-6.4-1.6-2.7-1.5-4.8-3.5-6.3-6-1.6-2.5-2.6-5.5-3.1-9l-8.5-4c.6,5.9,2.3,11.1,5.2,15.8,2.9,4.6,7.1,8.5,12.6,11.7,3.8,2.2,6.9,3.4,9.4,3.6,2.4.3,4.3-.5,5.7-2.2m40.4,23.3c1.4-1.7,2.1-4,2.1-6.8,0-3.1-.6-6.1-1.7-8.9s-2.7-5.4-4.8-7.8-5.2-5.4-9.4-9c-4.3-3.6-6.9-6.3-8-8-.9-1.3-1.3-2.6-1.3-3.8,0-1.3.5-2.1,1.4-2.3,1.4-.4,3.4.2,6,1.7s4.3,3,5.5,4.9c1.2,1.8,2,4.1,2.4,6.9l8.8,4.6c-.1-4.7-1.6-9.1-4.3-13.5-2.8-4.3-6.8-8.1-12.3-11.2-3.3-1.9-6.2-3-8.5-3.2-2.4-.2-4.2.5-5.4,1.9-1.2,1.5-1.9,3.5-1.9,6,0,3.9,1.3,8,4,12.3,1.9,3,5.2,6.6,9.8,10.6,3.7,3.2,6,5.2,7,6.2,1.5,1.5,2.6,2.8,3.2,4s.9,2.4.9,3.5c0,1.8-.7,3-2.2,3.6-1.4.5-3.6,0-6.4-1.6-2.7-1.5-4.8-3.5-6.3-6-1.6-2.5-2.6-5.5-3.1-9l-8.5-4c.6,5.9,2.3,11.1,5.2,15.8,2.9,4.6,7.1,8.5,12.6,11.6,3.8,2.2,6.9,3.4,9.4,3.6,2.4.4,4.4-.4,5.8-2.1" style="fill: #d61c10;"/>
          <g>
            <path d="m40,55.3c5.3,3.1,9.6,7.4,12.9,12.9,2,3.3,3.4,7.2,4.4,11.7l-8.7-2.6c-.5-2.9-1.6-5.5-3.2-8-1.6-2.4-3.6-4.3-5.9-5.7-3.2-1.9-5.8-2-7.8-.5s-3,5.2-3,11.1c0,6.3.9,11.3,2.9,15.1,2,3.8,4.5,6.6,7.7,8.5,2.3,1.3,4.3,1.6,6,.9s2.9-2.7,3.6-5.9l8.5,8c-1.3,4.7-3.5,7.5-6.5,8.4-3.1.9-6.9,0-11.5-2.7-5.8-3.3-10.5-8.3-14.2-15s-5.5-13.9-5.5-21.7c0-8.3,1.9-13.6,5.6-16.1s8.7-1.9,14.7,1.6h0Z" style="fill: #fff;"/>
            <path d="m80.2,78.4c5.4,3.1,9.5,6.9,12.3,11.2s4.2,8.8,4.3,13.5l-8.8-4.6c-.4-2.8-1.2-5.1-2.4-6.9-1.2-1.8-3.1-3.5-5.5-4.9-2.5-1.5-4.5-2-6-1.7-.9.2-1.4,1-1.4,2.3,0,1.2.4,2.4,1.3,3.8,1.1,1.7,3.8,4.4,8,8,4.3,3.6,7.4,6.6,9.4,9s3.6,5,4.8,7.8c1.1,2.8,1.7,5.8,1.7,8.9,0,2.9-.7,5.1-2.1,6.8-1.4,1.7-3.3,2.4-5.9,2.2-2.5-.2-5.7-1.5-9.4-3.6-5.5-3.2-9.7-7.1-12.6-11.7s-4.7-9.9-5.2-15.8l8.5,4c.5,3.6,1.5,6.6,3.1,9s3.7,4.4,6.3,6c2.8,1.6,4.9,2.2,6.4,1.6,1.4-.5,2.2-1.7,2.2-3.6,0-1.2-.3-2.4-.9-3.5-.6-1.2-1.7-2.5-3.2-4-1-1-3.3-3.1-7-6.2-4.7-4-8-7.6-9.9-10.6-2.7-4.3-4-8.4-4-12.3,0-2.5.6-4.6,1.9-6,1.2-1.5,3.1-2.1,5.4-1.9,2.5.3,5.4,1.3,8.7,3.2h0Z" style="fill: #fff;"/>
            <path d="m120.6,101.8c5.4,3.1,9.5,6.9,12.3,11.2,2.7,4.3,4.2,8.8,4.3,13.5l-8.8-4.6c-.4-2.8-1.2-5.1-2.4-6.9-1.2-1.8-3.1-3.5-5.5-4.9-2.6-1.5-4.5-2-6-1.7-.9.2-1.4,1-1.4,2.3,0,1.2.4,2.4,1.3,3.8,1.1,1.7,3.8,4.4,8,8s7.4,6.6,9.4,9,3.6,5,4.8,7.8c1.2,2.8,1.7,5.8,1.7,8.9,0,2.9-.7,5.1-2.1,6.8-1.4,1.7-3.3,2.4-5.9,2.2-2.5-.2-5.7-1.4-9.4-3.6-5.5-3.2-9.7-7.1-12.6-11.6-2.9-4.6-4.7-9.9-5.2-15.8l8.5,4c.5,3.6,1.5,6.6,3.1,9s3.7,4.4,6.3,6c2.8,1.6,4.9,2.2,6.4,1.6,1.4-.5,2.2-1.7,2.2-3.6,0-1.2-.3-2.4-.9-3.5-.6-1.2-1.6-2.5-3.2-4-1-1-3.3-3.1-7-6.2-4.7-4-8-7.6-9.8-10.6-2.7-4.3-4-8.4-4-12.3,0-2.5.6-4.6,1.9-6,1.3-1.5,3.1-2.1,5.4-1.9,2.4.1,5.2,1.1,8.6,3.1h0Z" style="fill: #fff;"/>
          </g>
          <path d="m185.5,108.2c0-.4,0-.8-.1-1.3,0-.2,0-.4-.1-.6v-.6c0-.4-.1-.9-.1-1.3-.1-.4-.1-.9-.2-1.3h0c-.1-.4-.1-.8-.2-1.2-.1-.5-.2-.9-.3-1.4,0-.2-.1-.3-.1-.5,0-.1,0-.2-.1-.3-.1-.2-.1-.4-.1-.6-.1-.5-.2-.9-.4-1.4-.1-.3-.2-.7-.3-1,0-.07-.03-.13-.1-.2-.07-.07-.1-.13-.1-.2-.1-.5-.3-.9-.4-1.4-.2-.5-.3-.9-.5-1.3,0-.1-.1-.2-.1-.2,0-.1-.1-.1-.1-.2-.1-.3-.2-.6-.3-.8-.2-.4-.3-.9-.5-1.3-.1-.3-.3-.6-.4-.9,0,0,0-.1-.1-.1,0-.1-.1-.1-.1-.2-.2-.4-.4-.9-.6-1.3-.2-.5-.4-.9-.7-1.4,0-.1-.1-.1-.1-.2-.1-.1-.1-.2-.1-.3-.2-.4-.4-.7-.6-1.1-.2-.5-.5-.9-.8-1.3-.1-.2-.3-.5-.4-.7-.1-.1-.1-.2-.2-.3-.2-.4-.5-.8-.7-1.1-.3-.6-.7-1.1-1.1-1.7-.1-.1-.1-.2-.2-.3-.5-.8-1.1-1.6-1.7-2.4h0c-.4-.5-.8-1-1.2-1.5-.3-.4-.7-.8-1-1.2h0c-.3-.4-.7-.8-1-1.2-.3-.4-.7-.8-1-1.1l-.2-.2-.2-.2c-.2-.2-.5-.5-.7-.8-.4-.4-.7-.7-1.1-1.1-.1-.1-.2-.2-.3-.3-.1-.1-.2-.2-.3-.2-.2-.2-.4-.3-.6-.5-.4-.4-.8-.7-1.2-1-.2-.1-.3-.3-.5-.4-.1-.1-.2-.1-.3-.2-.1-.1-.3-.2-.4-.3-.4-.3-.8-.6-1.2-.9-.3-.2-.6-.4-.8-.6-.1,0-.1-.1-.2-.1s-.1-.1-.1-.1c-.4-.2-.7-.5-1.1-.7s-.7-.5-1.1-.7c-.1,0-.2-.1-.3-.1L53.4,3.6c-.3-.2-.6-.3-.8-.5-.4-.2-.7-.4-1.1-.6-.2-.1-.5-.2-.7-.3-.07,0-.13-.03-.2-.1-.1,0-.1-.1-.2-.1-.3-.2-.7-.3-1.1-.5-.4-.1-.7-.3-1.1-.4-.07,0-.13-.03-.2-.1h-.2c-.2-.1-.5-.2-.7-.2-.4-.1-.7-.2-1.1-.3-.2,0-.3-.1-.5-.1h-.2c-.1,0-.2,0-.3-.1-.4-.1-.8-.1-1.2-.2-.2,0-.5,0-.7-.1h-2.9c-.5,0-1,.1-1.5.2h0c-.1,0-.2.1-.3.1-.5.1-1,.2-1.5.4h-.1c-.7.3-1.4.6-2,.9L7.3,17.6c.6-.4,1.3-.7,2-.9.5-.2,1.1-.3,1.6-.5.1,0,.2-.1.3-.1.6-.1,1.3-.2,2-.2h2.6c.7.1,1.4.2,2.2.3h.2c.8.2,1.5.4,2.3.6h.2c.8.3,1.7.6,2.5,1,.07,0,.13.03.2.1.9.4,1.7.8,2.6,1.4l105.4,60.8c.9.5,1.8,1.1,2.6,1.7.1,0,.1.1.2.1.8.6,1.6,1.2,2.4,1.8.1.1.2.1.3.2.8.6,1.5,1.3,2.2,2,.1.1.2.2.3.2.7.7,1.5,1.4,2.2,2.2l.2.2c.8.8,1.5,1.6,2.2,2.5h0c1.4,1.7,2.7,3.5,4,5.4.4.5.7,1.1,1.1,1.7.3.5.6.9.9,1.4.1.2.3.5.4.7.5.8.9,1.6,1.3,2.5,0,.1.1.2.1.3.5,1,1,2,1.4,3,0,0,.1.1.1.2.4,1,.8,2,1.2,3,0,.1.1.1.1.2.4,1,.7,2.1,1.1,3.1,0,.07.03.13.1.2.3,1,.6,2,.8,3,0,.1,0,.2.1.3.2,1,.4,2.1.6,3.1h0c.2,1,.3,2.1.4,3.1v.2c.1,1,.1,2,.1,3l-.1,47.6c0,1-.1,2-.1,2.9v.2c-.1.8-.2,1.7-.4,2.4,0,.1,0,.2-.1.3-.2.8-.3,1.5-.6,2.2,0,.1-.1.3-.1.4-.2.7-.5,1.3-.7,1.9,0,.1-.1.1-.1.2-.3.7-.7,1.3-1.1,1.9-.1.1-.1.2-.2.2-.3.5-.7.9-1,1.3-.1.2-.3.3-.4.4-.3.3-.6.7-1,1-.1.1-.3.2-.4.4-.5.4-1,.8-1.5,1.1l27.5-16c.5-.3,1-.7,1.5-1.1.2-.1.3-.2.4-.4.3-.3.7-.6,1-1,.1-.2.3-.3.4-.4.4-.4.7-.9,1-1.3.1-.1.1-.2.2-.2h0c.4-.6.7-1.2,1-1.8v-.1c0-.1.1-.1.1-.2.2-.4.4-.8.5-1.2.1-.2.1-.4.2-.7,0-.1.1-.3.1-.4s.1-.2.1-.3c.1-.4.2-.9.3-1.3,0-.2.1-.3.1-.5,0-.1,0-.2.1-.3,0-.2.1-.3.1-.5.1-.4.1-.8.2-1.2,0-.2.1-.5.1-.7v-.5c0-.4.1-.8.1-1.2v-1.4l.1-47.6c.4-.6.4-1,.4-1.3h0Z" style="fill: #00789d;"/>
        </g>
      </g>
    </g>
  </g>
</svg>